<?xml version="1.0" standalone="no"?>
<!DOCTYPE svg PUBLIC "-//W3C//DTD SVG 20010904//EN"
 "http://www.w3.org/TR/2001/REC-SVG-20010904/DTD/svg10.dtd">
<svg version="1.0" xmlns="http://www.w3.org/2000/svg"
 width="1189.000000pt" height="205.000000pt" viewBox="0 0 1189.000000 205.000000"
 preserveAspectRatio="xMidYMid meet">

<g transform="translate(0.000000,205.000000) scale(0.100000,0.100000)"
fill="#000000" stroke="none">
<path d="M870 2019 c-30 -5 -58 -13 -61 -17 -6 -6 -109 -390 -109 -406 0 -3
146 -6 325 -6 179 0 325 3 325 6 0 4 -23 98 -52 209 -49 192 -53 204 -77 209
-48 12 -295 15 -351 5z"/>
<path d="M1270 1991 c0 -13 63 -267 86 -348 l15 -53 44 0 c36 0 48 -5 61 -25
15 -23 15 -27 0 -50 -11 -17 -26 -25 -46 -25 -17 0 -30 -5 -30 -12 0 -7 26
-114 58 -238 l58 -225 48 -6 c47 -5 66 -19 66 -51 0 -21 -37 -48 -66 -48 -24
0 -26 12 87 -422 9 -36 12 -38 48 -38 42 0 71 -23 71 -58 0 -23 -27 -42 -59
-42 -22 0 -26 -19 -12 -54 6 -16 16 -9 69 50 34 38 62 73 62 78 0 31 -377
1501 -387 1512 -13 12 -99 48 -148 60 -16 4 -25 2 -25 -5z"/>
<path d="M575 1922 l-69 -37 -173 -685 -173 -685 46 -68 c26 -37 49 -66 51
-63 3 3 403 1563 403 1573 0 8 -20 0 -85 -35z"/>
<path d="M430 1834 c-337 -263 -481 -690 -365 -1087 29 -99 73 -202 83 -192 9
9 340 1315 333 1314 -4 0 -26 -16 -51 -35z"/>
<path d="M1728 1208 c90 -365 168 -667 172 -671 10 -12 78 153 101 248 11 44
23 132 26 195 13 272 -81 530 -267 733 -47 51 -175 157 -191 157 -4 0 68 -298
159 -662z"/>
<path d="M9087 1613 c-13 -13 -7 -42 11 -46 9 -3 39 -8 65 -12 39 -5 47 -10
43 -23 -3 -9 -15 -81 -27 -160 l-23 -142 -36 7 c-19 5 -71 8 -116 7 -104 0
-168 -30 -248 -114 -140 -147 -199 -427 -122 -584 40 -81 88 -111 175 -111 77
1 131 25 191 85 l39 39 7 -55 6 -54 133 0 c112 0 134 2 139 16 11 28 7 33 -35
44 -37 10 -40 13 -35 38 15 68 186 1042 186 1056 0 14 -21 16 -173 16 -96 0
-177 -3 -180 -7z m19 -465 c16 -8 28 -19 28 -24 -1 -5 -18 -110 -39 -234 l-37
-225 -52 -52 c-77 -76 -115 -80 -160 -20 -16 22 -21 47 -24 121 -7 150 24 281
88 378 50 75 119 95 196 56z"/>
<path d="M9937 1613 c-13 -13 -7 -42 11 -46 9 -3 39 -8 65 -12 39 -5 47 -10
43 -23 -3 -9 -15 -81 -27 -160 l-23 -142 -36 7 c-19 5 -71 8 -116 7 -104 0
-168 -30 -248 -114 -140 -147 -199 -427 -122 -584 40 -81 88 -111 175 -111 77
1 131 25 191 85 l39 39 7 -55 6 -54 133 0 c112 0 134 2 139 16 11 28 7 33 -35
44 -37 10 -40 13 -35 38 15 68 186 1042 186 1056 0 14 -21 16 -173 16 -96 0
-177 -3 -180 -7z m19 -465 c16 -8 28 -19 28 -24 -1 -5 -18 -110 -39 -234 l-37
-225 -52 -52 c-77 -76 -115 -80 -160 -20 -16 22 -21 47 -24 121 -7 150 24 281
88 378 50 75 119 95 196 56z"/>
<path d="M2435 1548 c-2 -7 -14 -77 -28 -155 l-24 -143 37 0 37 0 28 101 c16
55 32 102 35 104 15 9 230 18 230 9 0 -14 -161 -928 -164 -931 -2 -2 -41 -8
-87 -14 -83 -10 -99 -18 -99 -52 0 -16 19 -17 298 -15 l297 3 3 26 c3 25 0 27
-45 33 -129 17 -123 15 -117 45 3 16 41 226 83 467 l78 439 104 -3 c57 -1 110
-4 118 -7 11 -4 12 -25 6 -106 l-7 -100 38 3 39 3 26 153 26 152 -454 0 c-354
0 -454 -3 -458 -12z"/>
<path d="M6878 1531 c-4 -28 -2 -30 36 -36 89 -13 97 -16 92 -33 -2 -10 -39
-219 -82 -467 -42 -247 -80 -454 -84 -458 -3 -4 -35 -12 -71 -18 -64 -10 -79
-20 -79 -52 0 -16 26 -17 447 -15 l447 3 37 163 36 162 -36 0 -36 0 -44 -105
c-24 -58 -49 -109 -56 -115 -15 -12 -395 -27 -395 -16 0 12 162 931 164 933 1
2 38 8 82 14 43 6 80 11 81 12 1 1 4 14 8 30 l7 27 -275 0 -275 0 -4 -29z"/>
<path d="M666 1473 c-16 -54 -116 -443 -116 -452 0 -8 137 -11 476 -11 448 0
475 1 470 18 -3 9 -28 107 -55 217 -28 110 -54 210 -57 223 l-6 22 -353 0
c-328 0 -354 -1 -359 -17z"/>
<path d="M5715 1320 c-57 -90 -57 -91 -116 -107 -32 -9 -59 -22 -59 -29 0 -7
-3 -19 -6 -28 -5 -13 2 -16 43 -16 l49 0 -42 -232 c-61 -331 -57 -399 25 -450
51 -32 180 -31 263 1 66 26 71 31 62 66 -5 21 -11 25 -28 20 -65 -19 -97 -18
-121 5 -34 32 -32 67 18 350 l42 235 68 3 c51 2 67 6 67 17 0 18 26 20 36 3 4
-6 46 -168 94 -359 l87 -348 -39 -65 c-45 -76 -129 -171 -169 -191 -66 -35
-107 -12 -116 63 -5 48 -8 52 -32 52 -27 0 -28 -2 -43 -98 -10 -60 -12 -101
-6 -107 5 -5 50 -10 101 -10 107 0 132 10 215 89 67 63 116 136 366 543 199
326 226 379 226 438 0 64 -3 65 -110 65 -95 0 -99 -1 -102 -22 -2 -17 5 -27
26 -38 71 -36 55 -107 -72 -320 l-86 -145 -54 225 c-30 124 -58 242 -63 263
l-10 37 -185 0 -184 0 5 23 c7 33 25 139 25 149 0 4 -27 8 -59 8 l-59 0 -57
-90z"/>
<path d="M3760 1234 c-54 -23 -97 -61 -136 -117 -25 -38 -34 -45 -30 -27 3 14
8 51 11 83 l6 57 -154 0 c-151 0 -155 0 -160 -22 -7 -26 2 -34 55 -42 33 -5
38 -9 33 -29 -10 -44 -115 -655 -115 -671 0 -14 16 -16 108 -16 l109 0 43 251
c40 228 46 254 72 287 39 48 85 79 129 87 l37 7 19 -59 c15 -44 25 -59 41 -61
24 -4 23 -9 52 157 16 91 17 116 8 123 -21 13 -90 8 -128 -8z"/>
<path d="M5103 1240 c-52 -11 -111 -41 -140 -72 -58 -62 -70 -170 -27 -256 27
-54 64 -86 181 -156 74 -44 103 -78 103 -120 0 -98 -120 -155 -225 -107 -54
24 -69 45 -75 105 -5 47 -7 51 -32 54 -22 3 -28 -2 -32 -20 -13 -58 -35 -192
-33 -194 11 -11 136 -36 204 -41 134 -10 243 20 307 83 42 42 58 81 64 151 9
114 -34 180 -173 263 -103 62 -135 96 -135 141 0 55 33 90 92 96 90 10 154
-31 160 -102 3 -35 6 -40 31 -43 15 -2 27 -1 27 1 0 3 7 41 15 84 24 125 28
118 -67 131 -93 13 -183 14 -245 2z"/>
<path d="M8110 1234 c-212 -57 -362 -294 -347 -550 5 -96 29 -156 79 -200 91
-80 218 -67 327 31 l38 35 7 -50 7 -50 138 0 c117 0 140 2 145 16 10 27 7 32
-26 38 -62 12 -62 -5 2 367 33 189 60 350 60 357 0 16 -29 15 -71 -2 -30 -12
-42 -12 -104 4 -84 23 -181 24 -255 4z m159 -75 c17 -6 31 -18 31 -27 0 -32
-71 -438 -82 -464 -13 -35 -89 -105 -123 -114 -34 -8 -67 9 -90 49 -28 46 -33
192 -10 291 17 79 72 201 102 229 50 44 110 57 172 36z"/>
<path d="M10643 1236 c-152 -50 -280 -205 -318 -384 -41 -191 9 -339 133 -394
56 -25 162 -33 235 -18 59 12 175 66 215 100 23 19 23 20 5 43 l-18 24 -69
-36 c-59 -31 -78 -36 -136 -36 -59 0 -72 3 -95 25 -36 34 -45 51 -56 118 -16
100 -12 105 94 125 159 30 284 103 326 191 45 92 18 178 -71 224 -58 30 -181
39 -245 18z m119 -93 c46 -41 7 -162 -71 -218 -40 -30 -127 -62 -137 -52 -6 6
25 115 47 168 24 56 88 119 121 119 12 0 30 -7 40 -17z"/>
<path d="M11550 1234 c-54 -23 -97 -61 -136 -117 -25 -38 -34 -45 -30 -27 3
14 8 51 11 83 l6 57 -154 0 c-151 0 -155 0 -160 -22 -7 -26 2 -34 55 -42 33
-5 38 -9 33 -29 -10 -44 -115 -655 -115 -671 0 -14 16 -16 108 -16 l109 0 43
251 c40 228 46 254 72 287 39 48 85 79 129 87 l37 7 19 -59 c15 -44 25 -59 41
-61 24 -4 23 -9 52 157 16 91 17 116 8 123 -21 13 -90 8 -128 -8z"/>
<path d="M3958 1205 c-4 -21 -1 -26 21 -31 75 -16 73 9 25 -259 -63 -352 -58
-413 37 -463 37 -20 55 -23 115 -19 89 5 160 37 234 104 l56 51 -4 -69 -4 -69
145 0 c123 0 146 2 151 16 11 28 7 34 -37 45 l-44 11 54 311 c29 172 56 331
60 355 l6 42 -109 0 -109 0 -44 -247 c-38 -218 -47 -254 -73 -296 -93 -147
-258 -185 -258 -59 0 20 23 163 50 316 28 154 50 281 50 283 0 2 -71 3 -159 3
l-159 0 -4 -25z"/>
<path d="M515 898 c-7 -22 -115 -435 -115 -442 0 -3 279 -6 620 -6 341 0 620
3 620 7 0 3 -25 107 -56 230 l-57 223 -504 0 c-394 0 -505 -3 -508 -12z"/>
<path d="M362 318 c-11 -40 -2 -53 84 -114 82 -59 229 -127 334 -156 74 -20
107 -23 255 -22 154 1 178 3 258 27 115 35 203 76 285 131 119 81 115 76 102
124 l-11 42 -649 0 -649 0 -9 -32z"/>
</g>
</svg>
